<mxfile host="app.diagrams.net" modified="2023-11-08T13:50:56.415Z" agent="Mozilla/5.0 (Windows NT 10.0; Win64; x64) AppleWebKit/537.36 (KHTML, like Gecko) Chrome/119.0.0.0 Safari/537.36 Edg/119.0.0.0" etag="CwItfil9JreOENA5aGog" version="22.0.8" type="github">
  <diagram name="Page-1" id="X2-yjrpIv3iHHXsRrlKk">
    <mxGraphModel dx="2026" dy="1145" grid="1" gridSize="10" guides="1" tooltips="1" connect="1" arrows="1" fold="1" page="1" pageScale="1" pageWidth="850" pageHeight="1100" math="0" shadow="0">
      <root>
        <mxCell id="0" />
        <mxCell id="1" parent="0" />
        <mxCell id="z57LWiYdsDcZnA-EtoCu-4" style="edgeStyle=orthogonalEdgeStyle;rounded=0;orthogonalLoop=1;jettySize=auto;html=1;" edge="1" parent="1" source="z57LWiYdsDcZnA-EtoCu-2" target="z57LWiYdsDcZnA-EtoCu-3">
          <mxGeometry relative="1" as="geometry" />
        </mxCell>
        <mxCell id="z57LWiYdsDcZnA-EtoCu-2" value="Snapshot of LMS data" style="rounded=1;whiteSpace=wrap;html=1;" vertex="1" parent="1">
          <mxGeometry x="40" y="40" width="120" height="60" as="geometry" />
        </mxCell>
        <mxCell id="z57LWiYdsDcZnA-EtoCu-3" value="LPIS" style="rounded=1;whiteSpace=wrap;html=1;" vertex="1" parent="1">
          <mxGeometry x="240" y="40" width="120" height="60" as="geometry" />
        </mxCell>
        <mxCell id="z57LWiYdsDcZnA-EtoCu-5" value="Standards&lt;br&gt;(AHL1, MOR1, IGL1, HRW1 and LIG1)" style="rounded=1;whiteSpace=wrap;html=1;" vertex="1" parent="1">
          <mxGeometry x="40" y="160" width="120" height="60" as="geometry" />
        </mxCell>
        <mxCell id="z57LWiYdsDcZnA-EtoCu-6" value="Compatibility matrix for option to land use" style="rounded=1;whiteSpace=wrap;html=1;" vertex="1" parent="1">
          <mxGeometry x="40" y="280" width="120" height="60" as="geometry" />
        </mxCell>
        <mxCell id="z57LWiYdsDcZnA-EtoCu-7" value="Compatibility matrix for option to option" style="rounded=1;whiteSpace=wrap;html=1;" vertex="1" parent="1">
          <mxGeometry x="40" y="400" width="120" height="60" as="geometry" />
        </mxCell>
        <mxCell id="z57LWiYdsDcZnA-EtoCu-9" value="Other funding&lt;br&gt;(CS)" style="rounded=1;whiteSpace=wrap;html=1;" vertex="1" parent="1">
          <mxGeometry x="40" y="520" width="120" height="60" as="geometry" />
        </mxCell>
        <mxCell id="z57LWiYdsDcZnA-EtoCu-10" value="Customer" style="rounded=1;whiteSpace=wrap;html=1;" vertex="1" parent="1">
          <mxGeometry x="40" y="640" width="120" height="60" as="geometry" />
        </mxCell>
      </root>
    </mxGraphModel>
  </diagram>
</mxfile>
